# xmcd
#
# Track frame offsets:
#	182
#	20210
#	34975
#	57382
#	68920
#	82245
#	97182
#	116922
#	136495
#	150970
#	169050
#	195735
#	216735
#
# Disc length: 3139 seconds
#
# Revision: 1
# Processed by: cddbd v1.5.2PL0 Copyright (c) Steve Scherf et al.
# Submitted via: audiograbber 1.83.01
#
DISCID=cc0c410d
DTITLE=Piano Connection - Well Connected
DYEAR=1992
DGENRE=Boogie-Woogie
TTITLE0=2 Fast 4 U
TTITLE1=Kov Kov
TTITLE2=Grand Ma's Blues
TTITLE3=Remember Alice Springs
TTITLE4=Deep And Steep
TTITLE5=Orient Exzess
TTITLE6=Early Thoughts
TTITLE7=Blues Bike
TTITLE8=Grand Hotel Static
TTITLE9=A Lot, Good And Free
TTITLE10=He's 18 Years Old
TTITLE11=Bop Compagnon
TTITLE12=Toughstone And Starcorner
EXTD=
EXTT0=
EXTT1=
EXTT2=
EXTT3=
EXTT4=
EXTT5=
EXTT6=
EXTT7=
EXTT8=
EXTT9=
EXTT10=
EXTT11=
EXTT12=
PLAYORDER=
